<svg xmlns="http://www.w3.org/2000/svg" width="216.424" height="46" viewBox="0 0 216.424 46">
  <g id="Buzzencer_Logo-02" transform="translate(-73.1 -770.94)">
    <path id="Path_15317" data-name="Path 15317" d="M107.7,816.94H84.634A11.517,11.517,0,0,1,73.1,805.44v-23a11.517,11.517,0,0,1,11.534-11.5H107.7a11.517,11.517,0,0,1,11.534,11.5v23A11.517,11.517,0,0,1,107.7,816.94ZM91.191,783.857l-2.853,2.555a.166.166,0,0,0-.055.122v14.8a.166.166,0,0,0,.055.122l2.853,2.555a.168.168,0,0,0,.279-.122V783.981a.167.167,0,0,0-.279-.124Zm-5.2,4.667-5.9,5.294a.166.166,0,0,0,0,.243l5.9,5.292a.168.168,0,0,0,.281-.122V788.648a.168.168,0,0,0-.281-.124ZM96.4,779.4l-2.853,2.354a.165.165,0,0,0-.061.129v24.123a.166.166,0,0,0,.061.129l2.848,2.349a.167.167,0,0,0,.275-.122V779.53a.168.168,0,0,0-.275-.135Zm8.258,14.693a.166.166,0,0,1,0-.3,8.675,8.675,0,0,0,2.143-1.467,8.365,8.365,0,0,0-7.986-14.021.168.168,0,0,0-.122.163v30.944a.168.168,0,0,0,.122.163,8.365,8.365,0,0,0,7.986-14.022,8.494,8.494,0,0,0-2.143-1.47Z" transform="translate(0 0)" fill="#403bbf"/>
    <path id="Path_15318" data-name="Path 15318" d="M536.171,877.274a5.743,5.743,0,0,1,1.282,3.679,5.9,5.9,0,0,1-.925,3.294,6.143,6.143,0,0,1-2.674,2.224,9.816,9.816,0,0,1-4.138.8H519.59V863.93h9.689a10.1,10.1,0,0,1,4.12.769,5.854,5.854,0,0,1,2.623,2.14,5.585,5.585,0,0,1,.892,3.11,5.28,5.28,0,0,1-1.1,3.411,5.845,5.845,0,0,1-2.91,1.941A5.293,5.293,0,0,1,536.171,877.274ZM524.3,873.635h4.3a3.9,3.9,0,0,0,2.59-.769,2.731,2.731,0,0,0,.909-2.208,2.808,2.808,0,0,0-.926-2.24,3.8,3.8,0,0,0-2.573-.8h-4.3Zm7.422,9.107a2.93,2.93,0,0,0,.958-2.357,2.972,2.972,0,0,0-1.009-2.375,4.026,4.026,0,0,0-2.724-.869h-4.636v6.421h4.728A4.016,4.016,0,0,0,531.719,882.742Z" transform="translate(-392.013 -81.644)" fill="#403bbf"/>
    <path id="Path_15319" data-name="Path 15319" d="M704.2,903.63v18.635h-4.743V919.91a6.222,6.222,0,0,1-2.371,1.9,7.376,7.376,0,0,1-3.18.689,7.893,7.893,0,0,1-3.868-.925,6.52,6.52,0,0,1-2.64-2.724,9,9,0,0,1-.959-4.289V903.63h4.7v10.26a4.845,4.845,0,0,0,1.109,3.416,3.915,3.915,0,0,0,3.028,1.193,3.969,3.969,0,0,0,3.06-1.193,4.848,4.848,0,0,0,1.11-3.416V903.63Z" transform="translate(-538.505 -116.58)" fill="#403bbf"/>
    <path id="Path_15320" data-name="Path 15320" d="M858.578,918.4h8.309v3.868H853.23v-3.8l8.147-10.966h-8.113V903.63h13.521v3.8Z" transform="translate(-684.945 -116.58)" fill="#403bbf"/>
    <path id="Path_15321" data-name="Path 15321" d="M984.428,918.4h8.308v3.868H979.08v-3.8l8.139-10.966h-8.106V903.63h13.523v3.8Z" transform="translate(-795.44 -116.58)" fill="#403bbf"/>
    <path id="Path_15322" data-name="Path 15322" d="M1117.545,912.082h-13.623a4.672,4.672,0,0,0,1.378,3.228,4.334,4.334,0,0,0,3.094,1.177,3.847,3.847,0,0,0,3.735-2.253h5.078a8.479,8.479,0,0,1-3.094,4.423,9.026,9.026,0,0,1-5.612,1.733,9.719,9.719,0,0,1-4.827-1.193,8.4,8.4,0,0,1-3.33-3.381,10.343,10.343,0,0,1-1.195-5.046,10.547,10.547,0,0,1,1.178-5.078,8.207,8.207,0,0,1,3.294-3.364,9.891,9.891,0,0,1,4.88-1.177,9.792,9.792,0,0,1,4.758,1.143,8.082,8.082,0,0,1,3.258,3.231,9.732,9.732,0,0,1,1.16,4.81A10.753,10.753,0,0,1,1117.545,912.082Zm-4.747-2.86a4.021,4.021,0,0,0-1.295-3.077,4.556,4.556,0,0,0-3.145-1.127,4.227,4.227,0,0,0-2.995,1.127,4.835,4.835,0,0,0-1.446,3.077Z" transform="translate(-900.86 -114.402)" fill="#403bbf"/>
    <path id="Path_15323" data-name="Path 15323" d="M1286.1,903.5a8.051,8.051,0,0,1,2.052,5.87V920.3h-4.709V910.011a4.842,4.842,0,0,0-1.11-3.416,3.92,3.92,0,0,0-3.027-1.194,4.026,4.026,0,0,0-3.078,1.194,4.775,4.775,0,0,0-1.122,3.416V920.3h-4.71V901.669h4.71v2.318a6.5,6.5,0,0,1,2.4-1.9,7.443,7.443,0,0,1,3.213-.691A7.186,7.186,0,0,1,1286.1,903.5Z" transform="translate(-1051.216 -114.618)" fill="#403bbf"/>
    <path id="Path_15324" data-name="Path 15324" d="M1435.175,905.708a8.4,8.4,0,0,1,3.263-3.364,9.426,9.426,0,0,1,4.777-1.195,9.182,9.182,0,0,1,5.734,1.733,8.455,8.455,0,0,1,3.05,4.86h-5.079a3.719,3.719,0,0,0-1.363-1.9,3.957,3.957,0,0,0-2.372-.689,3.882,3.882,0,0,0-3.2,1.464,7.848,7.848,0,0,0,0,8.27,3.887,3.887,0,0,0,3.2,1.464,3.575,3.575,0,0,0,3.735-2.562H1452a8.608,8.608,0,0,1-3.061,4.81,9.015,9.015,0,0,1-5.719,1.783,9.44,9.44,0,0,1-4.777-1.193,8.415,8.415,0,0,1-3.263-3.364,11.451,11.451,0,0,1,0-10.116Z" transform="translate(-1194.855 -114.403)" fill="#403bbf"/>
    <path id="Path_15325" data-name="Path 15325" d="M1608.625,912.082H1595a4.671,4.671,0,0,0,1.379,3.228,4.335,4.335,0,0,0,3.1,1.177,3.847,3.847,0,0,0,3.734-2.253h5.079a8.486,8.486,0,0,1-3.094,4.423,9.03,9.03,0,0,1-5.613,1.733,9.75,9.75,0,0,1-4.827-1.193,8.4,8.4,0,0,1-3.33-3.381,10.361,10.361,0,0,1-1.194-5.046,10.547,10.547,0,0,1,1.177-5.078,8.208,8.208,0,0,1,3.294-3.364,9.9,9.9,0,0,1,4.881-1.177,9.794,9.794,0,0,1,4.758,1.143,8.073,8.073,0,0,1,3.256,3.231,9.7,9.7,0,0,1,1.162,4.81A10.591,10.591,0,0,1,1608.625,912.082Zm-4.743-2.86a4.009,4.009,0,0,0-1.295-3.077,4.561,4.561,0,0,0-3.145-1.127,4.225,4.225,0,0,0-2.993,1.127,4.841,4.841,0,0,0-1.447,3.077Z" transform="translate(-1332.023 -114.402)" fill="#403bbf"/>
    <path id="Path_15326" data-name="Path 15326" d="M1768.494,902.356a6.049,6.049,0,0,1,3.347-.942v4.951H1770.6a3.932,3.932,0,0,0-4.478,4.669v9.284h-4.708V901.683h4.708v3.294a7.006,7.006,0,0,1,2.375-2.622Z" transform="translate(-1482.317 -114.633)" fill="#403bbf"/>
  </g>
</svg>
