<?xml version="1.0" standalone="no"?><svg xmlns="http://www.w3.org/2000/svg" viewBox="0 0 1440 320"><path fill="#f7f7fd" fill-opacity="1" d="M0,192L30,170.7C60,149,120,107,180,112C240,117,300,171,360,170.7C420,171,480,117,540,122.7C600,128,660,192,720,186.7C780,181,840,107,900,96C960,85,1020,139,1080,186.7C1140,235,1200,277,1260,282.7C1320,288,1380,256,1410,240L1440,224L1440,320L1410,320C1380,320,1320,320,1260,320C1200,320,1140,320,1080,320C1020,320,960,320,900,320C840,320,780,320,720,320C660,320,600,320,540,320C480,320,420,320,360,320C300,320,240,320,180,320C120,320,60,320,30,320L0,320Z"></path></svg>